<svg width="22" height="20" viewBox="0 0 22 20" fill="none" xmlns="http://www.w3.org/2000/svg">
<path fill-rule="evenodd" clip-rule="evenodd" d="M11 0C10.5616 0 10.1309 0.11527 9.75117 0.334247C9.3714 0.553225 9.0559 0.86821 8.83629 1.24761L9.71272 1.75491L8.83629 1.24761L0.588515 15.4969C0.368558 15.8769 0.252562 16.3081 0.252198 16.7472C0.251836 17.1863 0.367118 17.6177 0.586447 17.9981C0.805775 18.3785 1.12141 18.6944 1.5016 18.914C1.88179 19.1336 2.31313 19.2493 2.7522 19.2493H19.2477C19.6868 19.2493 20.1182 19.1336 20.4983 18.914C20.8785 18.6944 21.1942 18.3785 21.4135 17.9981C21.6328 17.6177 21.7481 17.1863 21.7478 16.7472C21.7474 16.3081 21.6314 15.8769 21.4114 15.4969L13.1637 1.24761L12.4219 1.67695L13.1637 1.24761C12.9441 0.868212 12.6285 0.553225 12.2488 0.334247C11.869 0.11527 11.4383 0 11 0ZM10.7502 2.06685C10.8262 2.02305 10.9123 2 11 2C11.0876 2 11.1738 2.02305 11.2497 2.06685C11.3257 2.11064 11.3888 2.17364 11.4327 2.24952L19.6805 16.4988L20.4906 16.0299L19.6805 16.4988C19.7245 16.5748 19.7477 16.6611 19.7478 16.7489C19.7478 16.8367 19.7248 16.923 19.6809 16.999C19.637 17.0751 19.5739 17.1383 19.4979 17.1822C19.4218 17.2262 19.3356 17.2493 19.2478 17.2493H2.7522C2.66439 17.2493 2.57812 17.2262 2.50208 17.1822C2.42604 17.1383 2.36291 17.0751 2.31905 16.999C2.27518 16.923 2.25213 16.8367 2.2522 16.7489C2.25227 16.661 2.27547 16.5748 2.31946 16.4988L10.5672 2.24952C10.6112 2.17364 10.6743 2.11065 10.7502 2.06685ZM12 7C12 6.44772 11.5523 6 11 6C10.4477 6 10 6.44772 10 7V11.5C10 12.0523 10.4477 12.5 11 12.5C11.5523 12.5 12 12.0523 12 11.5V7ZM11 13.5312C10.3096 13.5312 9.75 14.0909 9.75 14.7812C9.75 15.4716 10.3096 16.0312 11 16.0312C11.6904 16.0312 12.25 15.4716 12.25 14.7812C12.25 14.0909 11.6904 13.5312 11 13.5312Z" fill="#FF5E5E"/>
</svg>
